<?xml version="1.0" standalone="no"?>
<!DOCTYPE svg PUBLIC "-//W3C//DTD SVG 20010904//EN"
 "http://www.w3.org/TR/2001/REC-SVG-20010904/DTD/svg10.dtd">
<svg version="1.0" xmlns="http://www.w3.org/2000/svg"
  viewBox="0 0 800.000000 800.000000"
 preserveAspectRatio="xMidYMid meet">
<metadata>
Created by potrace 1.15, written by Peter Selinger 2001-2017
</metadata>
<g transform="translate(0.000000,800.000000) scale(0.100000,-0.100000)"
fill="#fff" stroke="none">
<path d="M550 7345 c-105 -35 -200 -141 -222 -248 -43 -206 163 -412 369 -369
155 32 275 190 260 339 -11 105 -90 213 -190 262 -61 29 -155 36 -217 16z"/>
<path d="M1830 7345 c-105 -35 -200 -141 -222 -248 -43 -206 163 -412 369
-369 155 32 275 190 260 339 -11 105 -90 213 -190 262 -61 29 -155 36 -217 16z"/>
<path d="M3110 7345 c-105 -35 -200 -141 -222 -248 -43 -206 163 -412 369
-369 155 32 275 190 260 339 -11 105 -90 213 -190 262 -61 29 -155 36 -217 16z"/>
<path d="M4390 7345 c-105 -35 -200 -141 -222 -248 -43 -206 163 -412 369
-369 155 32 275 190 260 339 -11 105 -90 213 -190 262 -61 29 -155 36 -217 16z"/>
<path d="M5670 7345 c-105 -35 -200 -141 -222 -248 -43 -206 163 -412 369
-369 155 32 275 190 260 339 -11 105 -90 213 -190 262 -61 29 -155 36 -217 16z"/>
<path d="M6950 7345 c-105 -35 -200 -141 -222 -248 -43 -206 163 -412 369
-369 155 32 275 190 260 339 -11 105 -90 213 -190 262 -61 29 -155 36 -217 16z"/>
<path d="M550 6065 c-105 -35 -200 -141 -222 -248 -43 -206 163 -412 369 -369
155 32 275 190 260 339 -11 105 -90 213 -190 262 -61 29 -155 36 -217 16z"/>
<path d="M1830 6065 c-105 -35 -200 -141 -222 -248 -43 -206 163 -412 369
-369 155 32 275 190 260 339 -11 105 -90 213 -190 262 -61 29 -155 36 -217 16z"/>
<path d="M3110 6065 c-105 -35 -200 -141 -222 -248 -43 -206 163 -412 369
-369 155 32 275 190 260 339 -11 105 -90 213 -190 262 -61 29 -155 36 -217 16z"/>
<path d="M4390 6065 c-105 -35 -200 -141 -222 -248 -43 -206 163 -412 369
-369 155 32 275 190 260 339 -11 105 -90 213 -190 262 -61 29 -155 36 -217 16z"/>
<path d="M5670 6065 c-105 -35 -200 -141 -222 -248 -43 -206 163 -412 369
-369 155 32 275 190 260 339 -11 105 -90 213 -190 262 -61 29 -155 36 -217 16z"/>
<path d="M6950 6065 c-105 -35 -200 -141 -222 -248 -43 -206 163 -412 369
-369 155 32 275 190 260 339 -11 105 -90 213 -190 262 -61 29 -155 36 -217 16z"/>
<path d="M550 4785 c-105 -35 -200 -141 -222 -248 -43 -206 163 -412 369 -369
155 32 275 190 260 339 -11 105 -90 213 -190 262 -61 29 -155 36 -217 16z"/>
<path d="M1830 4785 c-105 -35 -200 -141 -222 -248 -43 -206 163 -412 369
-369 155 32 275 190 260 339 -11 105 -90 213 -190 262 -61 29 -155 36 -217 16z"/>
<path d="M3110 4785 c-105 -35 -200 -141 -222 -248 -25 -117 32 -244 142 -319
107 -74 229 -75 337 -3 177 118 201 338 53 485 -85 86 -207 119 -310 85z"/>
<path d="M4390 4785 c-105 -35 -200 -141 -222 -248 -25 -117 32 -244 142 -319
107 -74 229 -75 337 -3 177 118 201 338 53 485 -85 86 -207 119 -310 85z"/>
<path d="M5670 4785 c-151 -50 -253 -216 -222 -362 25 -119 136 -230 255 -255
193 -41 394 142 374 339 -11 105 -90 213 -190 262 -61 29 -155 36 -217 16z"/>
<path d="M6950 4785 c-151 -50 -253 -216 -222 -362 25 -119 136 -230 255 -255
193 -41 394 142 374 339 -11 105 -90 213 -190 262 -61 29 -155 36 -217 16z"/>
<path d="M550 3505 c-105 -35 -200 -141 -222 -248 -43 -206 163 -412 369 -369
155 32 275 190 260 339 -11 105 -90 213 -190 262 -61 29 -155 36 -217 16z"/>
<path d="M1830 3505 c-105 -35 -200 -141 -222 -248 -43 -206 163 -412 369
-369 155 32 275 190 260 339 -11 105 -90 213 -190 262 -61 29 -155 36 -217 16z"/>
<path d="M3110 3505 c-105 -35 -200 -141 -222 -248 -25 -117 32 -244 142 -319
107 -74 229 -75 337 -3 177 118 201 338 53 485 -85 86 -207 119 -310 85z"/>
<path d="M4390 3505 c-105 -35 -200 -141 -222 -248 -25 -117 32 -244 142 -319
107 -74 229 -75 337 -3 177 118 201 338 53 485 -85 86 -207 119 -310 85z"/>
<path d="M5670 3505 c-151 -50 -253 -216 -222 -362 25 -119 136 -230 255 -255
193 -41 394 142 374 339 -11 105 -90 213 -190 262 -61 29 -155 36 -217 16z"/>
<path d="M6950 3505 c-151 -50 -253 -216 -222 -362 25 -119 136 -230 255 -255
193 -41 394 142 374 339 -11 105 -90 213 -190 262 -61 29 -155 36 -217 16z"/>
<path d="M550 2225 c-105 -35 -200 -141 -222 -248 -43 -206 163 -412 369 -369
155 32 275 190 260 339 -11 105 -90 213 -190 262 -61 29 -155 36 -217 16z"/>
<path d="M1830 2225 c-105 -35 -200 -141 -222 -248 -43 -206 163 -412 369
-369 155 32 275 190 260 339 -11 105 -90 213 -190 262 -61 29 -155 36 -217 16z"/>
<path d="M3110 2225 c-105 -35 -200 -141 -222 -248 -25 -117 32 -244 142 -319
107 -74 229 -75 337 -3 177 118 201 338 53 485 -85 86 -207 119 -310 85z"/>
<path d="M4390 2225 c-105 -35 -200 -141 -222 -248 -25 -117 32 -244 142 -319
107 -74 229 -75 337 -3 177 118 201 338 53 485 -85 86 -207 119 -310 85z"/>
<path d="M5670 2225 c-105 -35 -200 -141 -222 -248 -43 -206 163 -412 369
-369 155 32 275 190 260 339 -11 105 -90 213 -190 262 -61 29 -155 36 -217 16z"/>
<path d="M6950 2225 c-105 -35 -200 -141 -222 -248 -43 -206 163 -412 369
-369 155 32 275 190 260 339 -11 105 -90 213 -190 262 -61 29 -155 36 -217 16z"/>
<path d="M550 945 c-105 -35 -200 -141 -222 -248 -43 -206 163 -412 369 -369
155 32 275 190 260 339 -11 105 -90 213 -190 262 -61 29 -155 36 -217 16z"/>
<path d="M1830 945 c-105 -35 -200 -141 -222 -248 -43 -206 163 -412 369 -369
155 32 275 190 260 339 -11 105 -90 213 -190 262 -61 29 -155 36 -217 16z"/>
<path d="M3110 945 c-105 -35 -200 -141 -222 -248 -43 -206 163 -412 369 -369
155 32 275 190 260 339 -11 105 -90 213 -190 262 -61 29 -155 36 -217 16z"/>
<path d="M4390 945 c-105 -35 -200 -141 -222 -248 -43 -206 163 -412 369 -369
155 32 275 190 260 339 -11 105 -90 213 -190 262 -61 29 -155 36 -217 16z"/>
<path d="M5670 945 c-105 -35 -200 -141 -222 -248 -43 -206 163 -412 369 -369
155 32 275 190 260 339 -11 105 -90 213 -190 262 -61 29 -155 36 -217 16z"/>
<path d="M6950 945 c-105 -35 -200 -141 -222 -248 -43 -206 163 -412 369 -369
155 32 275 190 260 339 -11 105 -90 213 -190 262 -61 29 -155 36 -217 16z"/>
</g>
</svg>
