<svg version="1.2" xmlns="http://www.w3.org/2000/svg" viewBox="0 0 46 44" width="46" height="44"><style>.a{fill:#fff}</style><path class="a" d="m1.4 0c0.8 0 1.5 0.7 1.5 1.5 0 0.8-0.7 1.4-1.5 1.4-0.8 0-1.4-0.6-1.4-1.4 0-0.8 0.6-1.5 1.4-1.5zm8.7 0c0.8 0 1.4 0.7 1.4 1.5 0 0.8-0.6 1.4-1.4 1.4-0.8 0-1.5-0.6-1.5-1.4 0-0.8 0.7-1.5 1.5-1.5zm8.6 0c0.8 0 1.4 0.7 1.4 1.5 0 0.8-0.6 1.4-1.4 1.4-0.8 0-1.5-0.6-1.5-1.4 0-0.8 0.7-1.5 1.5-1.5zm8.6 0c0.8 0 1.4 0.7 1.4 1.5 0 0.8-0.6 1.4-1.4 1.4-0.8 0-1.4-0.6-1.4-1.4 0-0.8 0.6-1.5 1.4-1.5zm8.6 0c0.8 0 1.5 0.7 1.5 1.5 0 0.8-0.7 1.4-1.5 1.4-0.8 0-1.4-0.6-1.4-1.4 0-0.8 0.6-1.5 1.4-1.5zm8.7 0c0.8 0 1.4 0.7 1.4 1.5 0 0.8-0.6 1.4-1.4 1.4-0.8 0-1.5-0.6-1.5-1.4 0-0.8 0.7-1.5 1.5-1.5zm-43.2 8.2c0.8 0 1.5 0.7 1.5 1.5 0 0.8-0.7 1.4-1.5 1.4-0.8 0-1.4-0.6-1.4-1.4 0-0.8 0.6-1.5 1.4-1.5zm8.7 0c0.8 0 1.4 0.7 1.4 1.5 0 0.8-0.6 1.4-1.4 1.4-0.8 0-1.5-0.6-1.5-1.4 0-0.8 0.7-1.5 1.5-1.5zm8.6 0c0.8 0 1.4 0.7 1.4 1.5 0 0.8-0.6 1.4-1.4 1.4-0.8 0-1.5-0.6-1.5-1.4 0-0.8 0.7-1.5 1.5-1.5zm8.6 0c0.8 0 1.4 0.7 1.4 1.5 0 0.8-0.6 1.4-1.4 1.4-0.8 0-1.4-0.6-1.4-1.4 0-0.8 0.6-1.5 1.4-1.5zm8.6 0c0.8 0 1.5 0.7 1.5 1.5 0 0.8-0.7 1.4-1.5 1.4-0.8 0-1.4-0.6-1.4-1.4 0-0.8 0.6-1.5 1.4-1.5zm8.7 0c0.8 0 1.4 0.7 1.4 1.5 0 0.8-0.6 1.4-1.4 1.4-0.8 0-1.5-0.6-1.5-1.4 0-0.8 0.7-1.5 1.5-1.5zm-43.2 8.2c0.8 0 1.5 0.7 1.5 1.5 0 0.8-0.7 1.4-1.5 1.4-0.8 0-1.4-0.6-1.4-1.4 0-0.8 0.6-1.5 1.4-1.5zm8.7 0c0.8 0 1.4 0.7 1.4 1.5 0 0.8-0.6 1.4-1.4 1.4-0.8 0-1.5-0.6-1.5-1.4 0-0.8 0.7-1.5 1.5-1.5zm8.6 0c0.8 0 1.4 0.7 1.4 1.5 0 0.8-0.6 1.4-1.4 1.4-0.8 0-1.5-0.6-1.5-1.4 0-0.8 0.7-1.5 1.5-1.5zm8.6 0c0.8 0 1.4 0.7 1.4 1.5 0 0.8-0.6 1.4-1.4 1.4-0.8 0-1.4-0.6-1.4-1.4 0-0.8 0.6-1.5 1.4-1.5zm8.6 0c0.8 0 1.5 0.7 1.5 1.5 0 0.8-0.7 1.4-1.5 1.4-0.8 0-1.4-0.6-1.4-1.4 0-0.8 0.6-1.5 1.4-1.5zm8.7 0c0.8 0 1.4 0.7 1.4 1.5 0 0.8-0.6 1.4-1.4 1.4-0.8 0-1.5-0.6-1.5-1.4 0-0.8 0.7-1.5 1.5-1.5zm-43.2 8.3c0.8 0 1.5 0.6 1.5 1.4 0 0.8-0.7 1.5-1.5 1.5-0.8 0-1.4-0.7-1.4-1.5 0-0.8 0.6-1.4 1.4-1.4zm8.7 0c0.8 0 1.4 0.6 1.4 1.4 0 0.8-0.6 1.5-1.4 1.5-0.8 0-1.5-0.7-1.5-1.5 0-0.8 0.7-1.4 1.5-1.4zm8.6 0c0.8 0 1.4 0.6 1.4 1.4 0 0.8-0.6 1.5-1.4 1.5-0.8 0-1.5-0.7-1.5-1.5 0-0.8 0.7-1.4 1.5-1.4zm8.6 0c0.8 0 1.4 0.6 1.4 1.4 0 0.8-0.6 1.5-1.4 1.5-0.8 0-1.4-0.7-1.4-1.5 0-0.8 0.6-1.4 1.4-1.4zm8.6 0c0.8 0 1.5 0.6 1.5 1.4 0 0.8-0.7 1.5-1.5 1.5-0.8 0-1.4-0.7-1.4-1.5 0-0.8 0.6-1.4 1.4-1.4zm8.7 0c0.8 0 1.4 0.6 1.4 1.4 0 0.8-0.6 1.5-1.4 1.5-0.8 0-1.5-0.7-1.5-1.5 0-0.8 0.7-1.4 1.5-1.4zm-43.2 8.2c0.8 0 1.5 0.6 1.5 1.4 0 0.8-0.7 1.5-1.5 1.5-0.8 0-1.4-0.7-1.4-1.5 0-0.8 0.6-1.4 1.4-1.4zm8.7 0c0.8 0 1.4 0.6 1.4 1.4 0 0.8-0.6 1.5-1.4 1.5-0.8 0-1.5-0.7-1.5-1.5 0-0.8 0.7-1.4 1.5-1.4zm8.6 0c0.8 0 1.4 0.6 1.4 1.4 0 0.8-0.6 1.5-1.4 1.5-0.8 0-1.5-0.7-1.5-1.5 0-0.8 0.7-1.4 1.5-1.4zm8.6 0c0.8 0 1.4 0.6 1.4 1.4 0 0.8-0.6 1.5-1.4 1.5-0.8 0-1.4-0.7-1.4-1.5 0-0.8 0.6-1.4 1.4-1.4zm8.6 0c0.8 0 1.5 0.6 1.5 1.4 0 0.8-0.7 1.5-1.5 1.5-0.8 0-1.4-0.7-1.4-1.5 0-0.8 0.6-1.4 1.4-1.4zm8.7 0c0.8 0 1.4 0.6 1.4 1.4 0 0.8-0.6 1.5-1.4 1.5-0.8 0-1.5-0.7-1.5-1.5 0-0.8 0.7-1.4 1.5-1.4zm-43.2 8.2c0.8 0 1.5 0.6 1.5 1.4 0 0.8-0.7 1.5-1.5 1.5-0.8 0-1.4-0.7-1.4-1.5 0-0.8 0.6-1.4 1.4-1.4zm8.7 0c0.8 0 1.4 0.6 1.4 1.4 0 0.8-0.6 1.5-1.4 1.5-0.8 0-1.5-0.7-1.5-1.5 0-0.8 0.7-1.4 1.5-1.4zm8.6 0c0.8 0 1.4 0.6 1.4 1.4 0 0.8-0.6 1.5-1.4 1.5-0.8 0-1.5-0.7-1.5-1.5 0-0.8 0.7-1.4 1.5-1.4zm8.6 0c0.8 0 1.4 0.6 1.4 1.4 0 0.8-0.6 1.5-1.4 1.5-0.8 0-1.4-0.7-1.4-1.5 0-0.8 0.6-1.4 1.4-1.4zm8.6 0c0.8 0 1.5 0.6 1.5 1.4 0 0.8-0.7 1.5-1.5 1.5-0.8 0-1.4-0.7-1.4-1.5 0-0.8 0.6-1.4 1.4-1.4zm8.7 0c0.8 0 1.4 0.6 1.4 1.4 0 0.8-0.6 1.5-1.4 1.5-0.8 0-1.5-0.7-1.5-1.5 0-0.8 0.7-1.4 1.5-1.4z"/></svg>