<svg version="1.2" xmlns="http://www.w3.org/2000/svg" viewBox="0 0 110 36" width="110" height="36"><style>.a{fill:#fff}</style><path fill-rule="evenodd" class="a" d="m91.3 19.3c-9.5 7-17.7 7-27.2 0-6.2-4.6-11.5-4.6-17.7 0-9.4 6.9-17.1 6.9-26.5 0-6.3-4.6-10.6-4.6-16.8 0l-2.6-3.4c7.6-5.6 14-5.9 22 0 7.4 5.5 12.9 6.2 21.3 0 8-5.9 15.3-5.6 22.9 0 7.8 5.7 13.9 6 22 0 7.9-5.9 13.1-5.9 21 0l-2.6 3.4c-6.3-4.7-9.4-4.7-15.8 0zm0-11.5c-9.5 7-17.7 7-27.2 0-6.2-4.6-11.5-4.6-17.7 0-9.4 6.9-17.1 6.9-26.5 0-6.3-4.7-10.6-4.7-16.8 0l-2.6-3.4c7.6-5.6 14-5.9 22 0 7.4 5.5 12.9 6.1 21.3 0 8-5.9 15.3-5.6 22.9 0 7.8 5.7 13.9 5.9 22 0 7.9-5.9 13.1-5.9 21 0l-2.6 3.4c-6.3-4.7-9.4-4.7-15.8 0zm-68.8 19.6c7.4 5.5 12.9 6.2 21.3 0 8-5.8 15.3-5.6 22.9 0 7.8 5.8 13.9 6 22 0 7.9-5.8 13.1-5.8 21 0l-2.6 3.4c-6.3-4.7-9.4-4.7-15.8 0-9.5 7-17.7 7-27.2 0-6.2-4.6-11.5-4.6-17.7 0-9.4 7-17.1 7-26.5 0-6.3-4.6-10.6-4.6-16.8 0l-2.6-3.4c7.6-5.6 14-5.8 22 0z"/></svg>